{
  "accessors": [
    {
      "bufferView": 2,
      "componentType": 5126,
      "count": 65532,
      "max": [
        1.8039180040359497,
        1.5515580177307129,
        1.9790459871292114
      ],
      "min": [
        -1.5321470499038696,
        -2.4032530784606934,
        -2.3549010753631592
      ],
      "type": "VEC3"
    },
    {
      "bufferView": 2,
      "byteOffset": 786384,
      "componentType": 5126,
      "count": 65532,
      "max": [
        0.999988853931427,
        0.99999833106994629,
        0.99999964237213135
      ],
      "min": [
        -0.9999881386756897,
        -0.99997061491012573,
        -0.99999922513961792
      ],
      "type": "VEC3"
    },
    {
      "bufferView": 3,
      "componentType": 5126,
      "count": 65532,
      "max": [
        1,
        0.99997574090957642,
        0.9999244213104248,
        1
      ],
      "min": [
        -1,
        -0.99999755620956421,
        -0.99995130300521851,
        -1
      ],
      "type": "VEC4"
    },
    {
      "bufferView": 1,
      "componentType": 5126,
      "count": 65532,
      "max": [
        0.99699997901916504,
        0.98048001527786255
      ],
      "min": [
        0.046470001339912415,
        0.0026899999938905239
      ],
      "type": "VEC2"
    },
    {
      "bufferView": 0,
      "componentType": 5125,
      "count": 358695,
      "max": [
        65531
      ],
      "min": [
        0
      ],
      "type": "SCALAR"
    },
    {
      "bufferView": 2,
      "byteOffset": 1572768,
      "componentType": 5126,
      "count": 65532,
      "max": [
        1.8118139505386353,
        1.5508949756622314,
        1.9734090566635132
      ],
      "min": [
        -1.513949990272522,
        -2.388559103012085,
        -2.3414440155029297
      ],
      "type": "VEC3"
    },
    {
      "bufferView": 2,
      "byteOffset": 2359152,
      "componentType": 5126,
      "count": 65532,
      "max": [
        0.9999890923500061,
        0.99998748302459717,
        0.99996477365493774
      ],
      "min": [
        -0.99974286556243896,
        -0.99997800588607788,
        -0.9999881386756897
      ],
      "type": "VEC3"
    },
    {
      "bufferView": 3,
      "byteOffset": 1048512,
      "componentType": 5126,
      "count": 65532,
      "max": [
        0.99999839067459106,
        0.99999171495437622,
        0.99998384714126587,
        1
      ],
      "min": [
        -1,
        -0.99999094009399414,
        -0.99998575448989868,
        -1
      ],
      "type": "VEC4"
    },
    {
      "bufferView": 1,
      "byteOffset": 524256,
      "componentType": 5126,
      "count": 65532,
      "max": [
        0.99804002046585083,
        0.99641001224517822
      ],
      "min": [
        0.0080899996683001518,
        0.0019499999471008778
      ],
      "type": "VEC2"
    },
    {
      "bufferView": 0,
      "byteOffset": 1434780,
      "componentType": 5125,
      "count": 347175,
      "max": [
        65531
      ],
      "min": [
        0
      ],
      "type": "SCALAR"
    },
    {
      "bufferView": 2,
      "byteOffset": 3145536,
      "componentType": 5126,
      "count": 5424,
      "max": [
        1.2354340553283691,
        1.0591429471969604,
        1.6580489873886108
      ],
      "min": [
        -1.2819709777832031,
        -0.52538400888442993,
        -1.7687870264053345
      ],
      "type": "VEC3"
    },
    {
      "bufferView": 2,
      "byteOffset": 3210624,
      "componentType": 5126,
      "count": 5424,
      "max": [
        0.9941946268081665,
        0.9999464750289917,
        0.9982832670211792
      ],
      "min": [
        -0.99488109350204468,
        -0.99897336959838867,
        -0.99924701452255249
      ],
      "type": "VEC3"
    },
    {
      "bufferView": 3,
      "byteOffset": 2097024,
      "componentType": 5126,
      "count": 5424,
      "max": [
        0.99998986721038818,
        0.98593705892562866,
        0.996559739112854,
        -1
      ],
      "min": [
        -0.99950122833251953,
        -0.99987339973449707,
        -0.99981397390365601,
        -1
      ],
      "type": "VEC4"
    },
    {
      "bufferView": 1,
      "byteOffset": 1048512,
      "componentType": 5126,
      "count": 5424,
      "max": [
        0.96068000793457031,
        0.99804002046585083
      ],
      "min": [
        0.0099499998614192009,
        0.10687000304460526
      ],
      "type": "VEC2"
    },
    {
      "bufferView": 0,
      "byteOffset": 2823480,
      "componentType": 5125,
      "count": 27762,
      "max": [
        5423
      ],
      "min": [
        0
      ],
      "type": "SCALAR"
    }
  ],
  "asset": {
    "extras": {
      "author": "nataliedesign (https://sketchfab.com/nataliedesign)",
      "license": "CC-BY-4.0 (http://creativecommons.org/licenses/by/4.0/)",
      "source": "https://sketchfab.com/3d-models/wakfu-characters-yugo-23153d7ae7e24744b705e93741b70258",
      "title": "Wakfu Characters: Yugo"
    },
    "generator": "Sketchfab-6.76.0",
    "version": "2.0"
  },
  "bufferViews": [
    {
      "buffer": 0,
      "byteLength": 2934528,
      "byteOffset": 0,
      "name": "floatBufferViews",
      "target": 34963
    },
    {
      "buffer": 0,
      "byteLength": 1091904,
      "byteOffset": 2934528,
      "byteStride": 8,
      "name": "floatBufferViews",
      "target": 34962
    },
    {
      "buffer": 0,
      "byteLength": 3275712,
      "byteOffset": 4026432,
      "byteStride": 12,
      "name": "floatBufferViews",
      "target": 34962
    },
    {
      "buffer": 0,
      "byteLength": 2183808,
      "byteOffset": 7302144,
      "byteStride": 16,
      "name": "floatBufferViews",
      "target": 34962
    }
  ],
  "buffers": [
    {
      "byteLength": 9485952,
      "uri": "scene.bin"
    }
  ],
  "images": [
    {
      "uri": "textures/defaultMat_baseColor.jpeg"
    },
    {
      "uri": "textures/defaultMat_metallicRoughness.png"
    },
    {
      "uri": "textures/defaultMat_normal.jpeg"
    }
  ],
  "materials": [
    {
      "doubleSided": true,
      "name": "defaultMat",
      "normalTexture": {
        "index": 2,
        "scale": 1,
        "texCoord": 0
      },
      "pbrMetallicRoughness": {
        "baseColorFactor": [
          1,
          1,
          1,
          1
        ],
        "baseColorTexture": {
          "index": 0,
          "texCoord": 0
        },
        "metallicFactor": 0.2029344512195122,
        "metallicRoughnessTexture": {
          "index": 1,
          "texCoord": 0
        },
        "roughnessFactor": 0.55049542682926833
      }
    }
  ],
  "meshes": [
    {
      "primitives": [
        {
          "attributes": {
            "NORMAL": 1,
            "POSITION": 0,
            "TANGENT": 2,
            "TEXCOORD_0": 3
          },
          "indices": 4,
          "material": 0,
          "mode": 4
        }
      ]
    },
    {
      "primitives": [
        {
          "attributes": {
            "NORMAL": 6,
            "POSITION": 5,
            "TANGENT": 7,
            "TEXCOORD_0": 8
          },
          "indices": 9,
          "material": 0,
          "mode": 4
        }
      ]
    },
    {
      "primitives": [
        {
          "attributes": {
            "NORMAL": 11,
            "POSITION": 10,
            "TANGENT": 12,
            "TEXCOORD_0": 13
          },
          "indices": 14,
          "material": 0,
          "mode": 4
        }
      ]
    }
  ],
  "nodes": [
    {
      "children": [
        1
      ],
      "name": "RootNode (gltf orientation matrix)",
      "rotation": [
        -0.70710678118654746,
        -0,
        -0,
        0.70710678118654757
      ]
    },
    {
      "children": [
        2
      ],
      "name": "RootNode (model correction matrix)"
    },
    {
      "children": [
        3,
        4,
        5
      ],
      "name": "krushMaster_yugo.obj.cleaner.materialmerger.gles"
    },
    {
      "mesh": 0,
      "name": ""
    },
    {
      "mesh": 1,
      "name": ""
    },
    {
      "mesh": 2,
      "name": ""
    }
  ],
  "samplers": [
    {
      "magFilter": 9729,
      "minFilter": 9987,
      "wrapS": 10497,
      "wrapT": 10497
    }
  ],
  "scene": 0,
  "scenes": [
    {
      "name": "OSG_Scene",
      "nodes": [
        0
      ]
    }
  ],
  "textures": [
    {
      "sampler": 0,
      "source": 0
    },
    {
      "sampler": 0,
      "source": 1
    },
    {
      "sampler": 0,
      "source": 2
    }
  ]
}

