{
    "asset" : {
        "generator" : "Khronos glTF Blender I/O v0.9.36",
        "version" : "2.0"
    },
    "scene" : 0,
    "scenes" : [
        {
            "extras" : {
                "glTF2ExportSettings" : {
                    "export_apply" : 1,
                    "export_extras" : 1,
                    "export_format" : "GLTF_SEPARATE"
                }
            },
            "name" : "Scene",
            "nodes" : [
                0,
                1,
                2,
                3,
                4,
                5,
                6,
                7,
                8,
                9
            ]
        }
    ],
    "nodes" : [
        {
            "mesh" : 0,
            "name" : "bottle",
            "rotation" : [
                0,
                0,
                -1,
                -4.371138828673793e-08
            ],
            "scale" : [
                0.800000011920929,
                0.800000011920929,
                0.800000011920929
            ],
            "translation" : [
                0,
                5.866455078125,
                0
            ]
        },
        {
            "mesh" : 1,
            "name" : "lid_neck",
            "scale" : [
                0.25,
                0.5334318280220032,
                0.25
            ],
            "translation" : [
                0,
                6.7946696281433105,
                0
            ]
        },
        {
            "mesh" : 2,
            "name" : "tube",
            "rotation" : [
                0,
                0,
                -0.7000036239624023,
                0.7141392827033997
            ],
            "scale" : [
                0.10222738236188889,
                0.10222738236188889,
                0.10222738236188889
            ],
            "translation" : [
                0.3100212812423706,
                7.512887954711914,
                0
            ]
        },
        {
            "name" : "Light",
            "rotation" : [
                0.16907575726509094,
                0.7558803558349609,
                -0.27217137813568115,
                0.570947527885437
            ],
            "translation" : [
                4.076245307922363,
                5.903861999511719,
                -1.0054539442062378
            ]
        },
        {
            "name" : "Camera",
            "rotation" : [
                0.483536034822464,
                0.33687159419059753,
                -0.20870360732078552,
                0.7804827094078064
            ],
            "translation" : [
                7.358891487121582,
                4.958309173583984,
                6.925790786743164
            ]
        },
        {
            "mesh" : 3,
            "name" : "bottle.001",
            "rotation" : [
                0,
                0,
                -1,
                -4.371138828673793e-08
            ],
            "scale" : [
                0.800000011920929,
                0.800000011920929,
                0.800000011920929
            ],
            "translation" : [
                0,
                5.866455078125,
                0
            ]
        },
        {
            "mesh" : 4,
            "name" : "lid_foot.001",
            "scale" : [
                0.6000000238418579,
                1,
                0.6000000238418579
            ],
            "translation" : [
                0,
                6.33903694152832,
                0
            ]
        },
        {
            "mesh" : 5,
            "name" : "lid_head.001",
            "scale" : [
                0.3200591206550598,
                0.5334318280220032,
                0.3200591206550598
            ],
            "translation" : [
                0,
                7.292658805847168,
                0
            ]
        },
        {
            "mesh" : 6,
            "name" : "lid_neck.001",
            "scale" : [
                0.25,
                0.5334318280220032,
                0.25
            ],
            "translation" : [
                0,
                6.7946696281433105,
                0
            ]
        },
        {
            "mesh" : 7,
            "name" : "Torus.000",
            "rotation" : [
                0,
                0,
                -0.7000036239624023,
                0.7141392827033997
            ],
            "scale" : [
                0.10222738236188889,
                0.10222738236188889,
                0.10222738236188889
            ],
            "translation" : [
                0.3100212812423706,
                7.512887954711914,
                0
            ]
        }
    ],
    "materials" : [
        {
            "doubleSided" : true,
            "name" : "Material.003",
            "pbrMetallicRoughness" : {
                "baseColorTexture" : {
                    "index" : 0,
                    "texCoord" : 0
                },
                "metallicFactor" : 0,
                "roughnessFactor" : 0.5
            }
        },
        {
            "doubleSided" : true,
            "name" : "Material.002",
            "pbrMetallicRoughness" : {
                "baseColorTexture" : {
                    "index" : 1,
                    "texCoord" : 0
                },
                "metallicFactor" : 0,
                "roughnessFactor" : 0.5
            }
        },
        {
            "doubleSided" : true,
            "name" : "Material.001",
            "pbrMetallicRoughness" : {
                "baseColorTexture" : {
                    "index" : 2,
                    "texCoord" : 0
                },
                "metallicFactor" : 0,
                "roughnessFactor" : 0.5
            }
        }
    ],
    "meshes" : [
        {
            "name" : "Torus",
            "primitives" : [
                {
                    "attributes" : {
                        "POSITION" : 0,
                        "NORMAL" : 1,
                        "TEXCOORD_0" : 2
                    },
                    "indices" : 3,
                    "material" : 0
                }
            ]
        },
        {
            "name" : "Cylinder.004",
            "primitives" : [
                {
                    "attributes" : {
                        "POSITION" : 4,
                        "NORMAL" : 5,
                        "TEXCOORD_0" : 6
                    },
                    "indices" : 7,
                    "material" : 1
                }
            ]
        },
        {
            "name" : "Torus.001",
            "primitives" : [
                {
                    "attributes" : {
                        "POSITION" : 8,
                        "NORMAL" : 9,
                        "TEXCOORD_0" : 10
                    },
                    "indices" : 11,
                    "material" : 2
                }
            ]
        },
        {
            "name" : "Torus.004",
            "primitives" : [
                {
                    "attributes" : {
                        "POSITION" : 12,
                        "NORMAL" : 13,
                        "TEXCOORD_0" : 14
                    },
                    "indices" : 3
                }
            ]
        },
        {
            "name" : "Cylinder.008",
            "primitives" : [
                {
                    "attributes" : {
                        "POSITION" : 15,
                        "NORMAL" : 16,
                        "TEXCOORD_0" : 17
                    },
                    "indices" : 18
                }
            ]
        },
        {
            "name" : "Cylinder.006",
            "primitives" : [
                {
                    "attributes" : {
                        "POSITION" : 19,
                        "NORMAL" : 20,
                        "TEXCOORD_0" : 21
                    },
                    "indices" : 18
                }
            ]
        },
        {
            "name" : "Cylinder.007",
            "primitives" : [
                {
                    "attributes" : {
                        "POSITION" : 22,
                        "NORMAL" : 23,
                        "TEXCOORD_0" : 24
                    },
                    "indices" : 18
                }
            ]
        },
        {
            "name" : "Torus.003",
            "primitives" : [
                {
                    "attributes" : {
                        "POSITION" : 25,
                        "NORMAL" : 26,
                        "TEXCOORD_0" : 27
                    },
                    "indices" : 28
                }
            ]
        }
    ],
    "textures" : [
        {
            "source" : 0
        },
        {
            "source" : 1
        },
        {
            "source" : 2
        }
    ],
    "images" : [
        {
            "mimeType" : "image/png",
            "name" : "Material",
            "uri" : "Material.png"
        },
        {
            "mimeType" : "image/png",
            "name" : "Material",
            "uri" : "Material-1.png"
        },
        {
            "mimeType" : "image/png",
            "name" : "Material",
            "uri" : "Material-2.png"
        }
    ],
    "accessors" : [
        {
            "bufferView" : 0,
            "componentType" : 5126,
            "count" : 686,
            "max" : [
                1.2515745162963867,
                7.5796122550964355,
                1.2515745162963867
            ],
            "min" : [
                -1.2515746355056763,
                0.6444171071052551,
                -1.2515745162963867
            ],
            "type" : "VEC3"
        },
        {
            "bufferView" : 1,
            "componentType" : 5126,
            "count" : 686,
            "type" : "VEC3"
        },
        {
            "bufferView" : 2,
            "componentType" : 5126,
            "count" : 686,
            "type" : "VEC2"
        },
        {
            "bufferView" : 3,
            "componentType" : 5123,
            "count" : 3594,
            "type" : "SCALAR"
        },
        {
            "bufferView" : 4,
            "componentType" : 5126,
            "count" : 292,
            "max" : [
                2.4000000953674316,
                -0.042562007904052734,
                2.4000000953674316
            ],
            "min" : [
                -2.4000000953674316,
                -2.7288074493408203,
                -2.4000000953674316
            ],
            "type" : "VEC3"
        },
        {
            "bufferView" : 5,
            "componentType" : 5126,
            "count" : 292,
            "type" : "VEC3"
        },
        {
            "bufferView" : 6,
            "componentType" : 5126,
            "count" : 292,
            "type" : "VEC2"
        },
        {
            "bufferView" : 7,
            "componentType" : 5123,
            "count" : 852,
            "type" : "SCALAR"
        },
        {
            "bufferView" : 8,
            "componentType" : 5126,
            "count" : 3168,
            "max" : [
                7.372880458831787,
                12.047859191894531,
                3.130855083465576
            ],
            "min" : [
                -1.3436574935913086,
                -6.309659957885742,
                -3.130855083465576
            ],
            "type" : "VEC3"
        },
        {
            "bufferView" : 9,
            "componentType" : 5126,
            "count" : 3168,
            "type" : "VEC3"
        },
        {
            "bufferView" : 10,
            "componentType" : 5126,
            "count" : 3168,
            "type" : "VEC2"
        },
        {
            "bufferView" : 11,
            "componentType" : 5123,
            "count" : 4884,
            "type" : "SCALAR"
        },
        {
            "bufferView" : 12,
            "componentType" : 5126,
            "count" : 686,
            "max" : [
                1.2515745162963867,
                7.5796122550964355,
                1.2515745162963867
            ],
            "min" : [
                -1.2515746355056763,
                0.6444171071052551,
                -1.2515745162963867
            ],
            "type" : "VEC3"
        },
        {
            "bufferView" : 13,
            "componentType" : 5126,
            "count" : 686,
            "type" : "VEC3"
        },
        {
            "bufferView" : 14,
            "componentType" : 5126,
            "count" : 686,
            "type" : "VEC2"
        },
        {
            "bufferView" : 15,
            "componentType" : 5126,
            "count" : 146,
            "max" : [
                1,
                -0.0747300386428833,
                1
            ],
            "min" : [
                -1,
                -1,
                -1
            ],
            "type" : "VEC3"
        },
        {
            "bufferView" : 16,
            "componentType" : 5126,
            "count" : 146,
            "type" : "VEC3"
        },
        {
            "bufferView" : 17,
            "componentType" : 5126,
            "count" : 146,
            "type" : "VEC2"
        },
        {
            "bufferView" : 18,
            "componentType" : 5123,
            "count" : 426,
            "type" : "SCALAR"
        },
        {
            "bufferView" : 19,
            "componentType" : 5126,
            "count" : 146,
            "max" : [
                1,
                0.6467868089675903,
                1
            ],
            "min" : [
                -1,
                -1,
                -1
            ],
            "type" : "VEC3"
        },
        {
            "bufferView" : 20,
            "componentType" : 5126,
            "count" : 146,
            "type" : "VEC3"
        },
        {
            "bufferView" : 21,
            "componentType" : 5126,
            "count" : 146,
            "type" : "VEC2"
        },
        {
            "bufferView" : 22,
            "componentType" : 5126,
            "count" : 146,
            "max" : [
                1,
                -0.042562007904052734,
                1
            ],
            "min" : [
                -1,
                -1,
                -1
            ],
            "type" : "VEC3"
        },
        {
            "bufferView" : 23,
            "componentType" : 5126,
            "count" : 146,
            "type" : "VEC3"
        },
        {
            "bufferView" : 24,
            "componentType" : 5126,
            "count" : 146,
            "type" : "VEC2"
        },
        {
            "bufferView" : 25,
            "componentType" : 5126,
            "count" : 784,
            "max" : [
                2.5700552463531494,
                12.047859191894531,
                1.2499991655349731
            ],
            "min" : [
                -1.244507908821106,
                -0.25,
                -1.2499991655349731
            ],
            "type" : "VEC3"
        },
        {
            "bufferView" : 26,
            "componentType" : 5126,
            "count" : 784,
            "type" : "VEC3"
        },
        {
            "bufferView" : 27,
            "componentType" : 5126,
            "count" : 784,
            "type" : "VEC2"
        },
        {
            "bufferView" : 28,
            "componentType" : 5123,
            "count" : 4320,
            "type" : "SCALAR"
        }
    ],
    "bufferViews" : [
        {
            "buffer" : 0,
            "byteLength" : 8232,
            "byteOffset" : 0
        },
        {
            "buffer" : 0,
            "byteLength" : 8232,
            "byteOffset" : 8232
        },
        {
            "buffer" : 0,
            "byteLength" : 5488,
            "byteOffset" : 16464
        },
        {
            "buffer" : 0,
            "byteLength" : 7188,
            "byteOffset" : 21952
        },
        {
            "buffer" : 0,
            "byteLength" : 3504,
            "byteOffset" : 29140
        },
        {
            "buffer" : 0,
            "byteLength" : 3504,
            "byteOffset" : 32644
        },
        {
            "buffer" : 0,
            "byteLength" : 2336,
            "byteOffset" : 36148
        },
        {
            "buffer" : 0,
            "byteLength" : 1704,
            "byteOffset" : 38484
        },
        {
            "buffer" : 0,
            "byteLength" : 38016,
            "byteOffset" : 40188
        },
        {
            "buffer" : 0,
            "byteLength" : 38016,
            "byteOffset" : 78204
        },
        {
            "buffer" : 0,
            "byteLength" : 25344,
            "byteOffset" : 116220
        },
        {
            "buffer" : 0,
            "byteLength" : 9768,
            "byteOffset" : 141564
        },
        {
            "buffer" : 0,
            "byteLength" : 8232,
            "byteOffset" : 151332
        },
        {
            "buffer" : 0,
            "byteLength" : 8232,
            "byteOffset" : 159564
        },
        {
            "buffer" : 0,
            "byteLength" : 5488,
            "byteOffset" : 167796
        },
        {
            "buffer" : 0,
            "byteLength" : 1752,
            "byteOffset" : 173284
        },
        {
            "buffer" : 0,
            "byteLength" : 1752,
            "byteOffset" : 175036
        },
        {
            "buffer" : 0,
            "byteLength" : 1168,
            "byteOffset" : 176788
        },
        {
            "buffer" : 0,
            "byteLength" : 852,
            "byteOffset" : 177956
        },
        {
            "buffer" : 0,
            "byteLength" : 1752,
            "byteOffset" : 178808
        },
        {
            "buffer" : 0,
            "byteLength" : 1752,
            "byteOffset" : 180560
        },
        {
            "buffer" : 0,
            "byteLength" : 1168,
            "byteOffset" : 182312
        },
        {
            "buffer" : 0,
            "byteLength" : 1752,
            "byteOffset" : 183480
        },
        {
            "buffer" : 0,
            "byteLength" : 1752,
            "byteOffset" : 185232
        },
        {
            "buffer" : 0,
            "byteLength" : 1168,
            "byteOffset" : 186984
        },
        {
            "buffer" : 0,
            "byteLength" : 9408,
            "byteOffset" : 188152
        },
        {
            "buffer" : 0,
            "byteLength" : 9408,
            "byteOffset" : 197560
        },
        {
            "buffer" : 0,
            "byteLength" : 6272,
            "byteOffset" : 206968
        },
        {
            "buffer" : 0,
            "byteLength" : 8640,
            "byteOffset" : 213240
        }
    ],
    "buffers" : [
        {
            "byteLength" : 221880,
            "uri" : "MediplusProduct.bin"
        }
    ]
}
